<svg width="52" height="52" viewBox="0 0 52 52" fill="none" xmlns="http://www.w3.org/2000/svg">
<path d="M11.1432 26L26 11.1432L40.8568 26L26 40.8568L11.1432 26Z M50.8665 23.2645L28.7374 1.13165C28.0114 0.406997 27.0276 0 26.0019 0C24.9761 0 23.9923 0.406997 23.2664 1.13165L1.13165 23.2645C0.406997 23.9904 0 24.9743 0 26C0 27.0257 0.406997 28.0096 1.13165 28.7355L23.2645 50.8684C23.9904 51.593 24.9743 52 26 52C27.0257 52 28.0096 51.593 28.7355 50.8684L50.8684 28.7355C51.593 28.0096 52 27.0257 52 26C52 24.9743 51.593 23.9904 50.8684 23.2645H50.8665ZM26 48.352L3.64987 26L26 3.64801L48.352 26L26 48.352Z"/>
</svg>
