<svg width="52" height="52" viewBox="0 0 52 52" fill="none" xmlns="http://www.w3.org/2000/svg">
<circle cx="26" cy="26" r="26" fill="#D9D9D9"/>
<path d="M27.2617 26.8857C27.3359 26.7126 27.3978 26.4961 27.4473 26.2363C27.4967 25.9766 27.5277 25.7539 27.54 25.5684L27.5586 25.3086V23.1934H23.5693V29.335C23.5693 29.5081 23.4951 29.6999 23.3467 29.9102C23.2106 30.1081 23.0189 30.207 22.7715 30.207H18.3926C18.1452 30.207 17.9473 30.1081 17.7988 29.9102C17.6628 29.6999 17.5947 29.5081 17.5947 29.335V23.1934H13.5498C13.3766 23.1934 13.1973 23.1253 13.0117 22.9893C12.8262 22.8532 12.7334 22.6553 12.7334 22.3955V18.5732C12.7334 18.3135 12.8262 18.1156 13.0117 17.9795C13.1973 17.8434 13.3766 17.7754 13.5498 17.7754H17.5947V13.6377C17.5947 13.4645 17.6628 13.279 17.7988 13.0811C17.9473 12.8708 18.1452 12.7656 18.3926 12.7656H22.7715C23.0189 12.7656 23.2106 12.8708 23.3467 13.0811C23.4951 13.279 23.5693 13.4645 23.5693 13.6377V17.7754H27.5586V13.5449C27.5586 13.3841 27.6266 13.2171 27.7627 13.0439C27.8988 12.8584 28.0905 12.7656 28.3379 12.7656H32.8281C33.0755 12.7656 33.2611 12.8584 33.3848 13.0439C33.5208 13.2171 33.5889 13.3841 33.5889 13.5449V17.7754H38.376C38.5492 17.7754 38.7347 17.8496 38.9326 17.998C39.1429 18.1341 39.248 18.3258 39.248 18.5732V22.3955C39.248 22.6429 39.1429 22.8408 38.9326 22.9893C38.7347 23.1253 38.5492 23.1934 38.376 23.1934H33.5889V25.3086C33.5518 25.9766 33.4528 26.5023 33.292 26.8857L27.3359 40.5605C27.1009 41.0801 26.7917 41.3398 26.4082 41.3398H21.8994C21.652 41.3398 21.4727 41.2409 21.3613 41.043C21.2624 40.8574 21.2438 40.6966 21.3057 40.5605L27.2617 26.8857Z" fill="url(#paint0_linear_17_382)"/>
<defs>
<linearGradient id="paint0_linear_17_382" x1="7.09091" y1="6" x2="49.5726" y2="41.2822" gradientUnits="userSpaceOnUse">
<stop stop-color="#FF5C7A"/>
<stop offset="0.786458" stop-color="#830F24"/>
</linearGradient>
</defs>
</svg>
