<svg width="15" height="14" viewBox="0 0 15 14" fill="none" xmlns="http://www.w3.org/2000/svg">
<path d="M7.5 0C6.01664 0 4.56659 0.410543 3.33323 1.17971C2.09986 1.94888 1.13856 3.04213 0.570907 4.32121C0.00324963 5.6003 -0.145275 7.00776 0.144114 8.36563C0.433503 9.7235 1.14781 10.9708 2.1967 11.9497C3.2456 12.9287 4.58197 13.5954 6.03683 13.8655C7.49168 14.1356 8.99968 13.997 10.3701 13.4672C11.7406 12.9373 12.9119 12.0401 13.736 10.889C14.5601 9.73784 15 8.38447 15 7C15 6.08075 14.806 5.17049 14.4291 4.32121C14.0522 3.47194 13.4997 2.70026 12.8033 2.05025C12.1069 1.40024 11.2801 0.884626 10.3701 0.532843C9.46019 0.18106 8.48492 0 7.5 0ZM12 6.86C12.0117 6.98097 11.9856 7.10252 11.925 7.21L10.35 10.64C10.2679 10.8149 10.1305 10.9622 9.95629 11.0622C9.78206 11.1623 9.57927 11.2104 9.375 11.2H5.25C4.85218 11.2 4.47065 11.0525 4.18934 10.7899C3.90804 10.5274 3.75 10.1713 3.75 9.8V6.3C3.74251 6.16998 3.76547 6.04001 3.81728 5.91912C3.86909 5.79822 3.94851 5.68933 4.05 5.6L7.5 2.1L8.0175 2.583C8.15376 2.71541 8.23374 2.88958 8.2425 3.073V3.213L7.8075 5.6H11.25C11.4489 5.6 11.6397 5.67375 11.7803 5.80502C11.921 5.9363 12 6.11435 12 6.3V6.86Z"/>
</svg>
