<svg width="15" height="15" viewBox="0 0 15 15" fill="none" xmlns="http://www.w3.org/2000/svg">
<path d="M0 11.25V0.75C0 0.5375 0.0720001 0.35925 0.216 0.21525C0.3595 0.07175 0.5375 0 0.75 0H10.5C10.7125 0 10.8905 0.07175 11.034 0.21525C11.178 0.35925 11.25 0.5375 11.25 0.75V7.5C11.25 7.7125 11.178 7.8905 11.034 8.034C10.8905 8.178 10.7125 8.25 10.5 8.25H3L0 11.25ZM3.75 12C3.5375 12 3.35925 11.928 3.21525 11.784C3.07175 11.6405 3 11.4625 3 11.25V9.75H12.75V3H14.25C14.4625 3 14.6405 3.07175 14.784 3.21525C14.928 3.35925 15 3.5375 15 3.75V15L12 12H3.75Z" />
</svg>
