<svg width="15" height="16" viewBox="0 0 15 16" fill="none" xmlns="http://www.w3.org/2000/svg">
<path d="M15 12.97L14.8289 12.8224C14.3433 12.3995 13.9184 11.9145 13.5654 11.3805C13.18 10.6435 12.9489 9.83874 12.8859 9.01333V6.58221C12.8892 5.28576 12.4082 4.03273 11.5333 3.05856C10.6583 2.08439 9.44958 1.45614 8.13423 1.29184V0.656991C8.13423 0.482746 8.06343 0.315638 7.93741 0.192428C7.81139 0.0692186 7.64047 0 7.46225 0C7.28403 0 7.11311 0.0692186 6.98709 0.192428C6.86107 0.315638 6.79027 0.482746 6.79027 0.656991V1.30168C5.48671 1.47783 4.2926 2.10988 3.42913 3.08078C2.56565 4.05167 2.09131 5.29562 2.09396 6.58221V9.01333C2.03092 9.83874 1.79989 10.6435 1.41443 11.3805C1.06756 11.9131 0.649427 12.3981 0.171141 12.8224L0 12.97V14.3578H15V12.97Z M6.17617 14.8746C6.22031 15.1865 6.37842 15.4723 6.62129 15.6792C6.86415 15.886 7.17538 16 7.49748 16C7.81959 16 8.13081 15.886 8.37368 15.6792C8.61655 15.4723 8.77465 15.1865 8.81879 14.8746H6.17617Z"/>
</svg>
