<svg width="15" height="13" viewBox="0 0 15 13" fill="none" xmlns="http://www.w3.org/2000/svg">
<path d="M13.5938 13H1.40625C0.62959 13 0 12.3764 0 11.6071V1.39286C0 0.623594 0.62959 0 1.40625 0H13.5938C14.3704 0 15 0.623594 15 1.39286V11.6071C15 12.3764 14.3704 13 13.5938 13ZM3.75 2.55357C3.1028 2.55357 2.57812 3.07325 2.57812 3.71429C2.57812 4.35532 3.1028 4.875 3.75 4.875C4.3972 4.875 4.92188 4.35532 4.92188 3.71429C4.92188 3.07325 4.3972 2.55357 3.75 2.55357ZM3.75 5.33929C3.1028 5.33929 2.57812 5.85897 2.57812 6.5C2.57812 7.14103 3.1028 7.66071 3.75 7.66071C4.3972 7.66071 4.92188 7.14103 4.92188 6.5C4.92188 5.85897 4.3972 5.33929 3.75 5.33929ZM3.75 8.125C3.1028 8.125 2.57812 8.64468 2.57812 9.28571C2.57812 9.92675 3.1028 10.4464 3.75 10.4464C4.3972 10.4464 4.92188 9.92675 4.92188 9.28571C4.92188 8.64468 4.3972 8.125 3.75 8.125ZM12.1875 4.17857V3.25C12.1875 3.0577 12.0301 2.90179 11.8359 2.90179H5.97656C5.78241 2.90179 5.625 3.0577 5.625 3.25V4.17857C5.625 4.37087 5.78241 4.52679 5.97656 4.52679H11.8359C12.0301 4.52679 12.1875 4.37087 12.1875 4.17857ZM12.1875 6.96429V6.03571C12.1875 5.84341 12.0301 5.6875 11.8359 5.6875H5.97656C5.78241 5.6875 5.625 5.84341 5.625 6.03571V6.96429C5.625 7.15659 5.78241 7.3125 5.97656 7.3125H11.8359C12.0301 7.3125 12.1875 7.15659 12.1875 6.96429ZM12.1875 9.75V8.82143C12.1875 8.62913 12.0301 8.47321 11.8359 8.47321H5.97656C5.78241 8.47321 5.625 8.62913 5.625 8.82143V9.75C5.625 9.9423 5.78241 10.0982 5.97656 10.0982H11.8359C12.0301 10.0982 12.1875 9.9423 12.1875 9.75Z"/>
</svg>
